<svg width="188" height="58" viewBox="0 0 188 58" fill="none" xmlns="http://www.w3.org/2000/svg">
<path d="M39.3289 13.6061H47.1289V14.4639H45.7908C45.1961 14.4639 44.8187 14.5401 44.6586 14.6926C44.5061 14.8375 44.4298 15.1501 44.4298 15.6305V28.4399C44.4298 28.9507 44.4984 29.271 44.6357 29.4006C44.8187 29.576 45.1504 29.6636 45.6307 29.6636H47.1289V30.5214H39.3289V29.6636H40.8043C41.3228 29.6636 41.6583 29.5874 41.8108 29.4349C41.9632 29.2824 42.0395 28.9507 42.0395 28.4399V15.6305C42.0395 15.1425 41.9709 14.8413 41.8336 14.727C41.6201 14.5516 41.2275 14.4639 40.6556 14.4639H39.3289V13.6061ZM58.829 14.8871L59.8583 13.4117H60.6932L60.7618 19.5762H60.007C59.5343 17.6853 58.8328 16.3053 57.9026 15.436C56.98 14.5668 55.9164 14.1322 54.7117 14.1322C53.7052 14.1322 52.8818 14.4334 52.2413 15.0358C51.6008 15.6381 51.2806 16.3739 51.2806 17.2431C51.2806 17.7844 51.4026 18.261 51.6466 18.6727C51.8905 19.0768 52.2527 19.4085 52.7331 19.6677C53.221 19.9193 54.136 20.19 55.4779 20.4798C57.3612 20.8915 58.6803 21.307 59.4351 21.7264C60.1976 22.1457 60.7656 22.6757 61.1393 23.3161C61.5129 23.949 61.6997 24.6924 61.6997 25.5463C61.6997 27.0713 61.185 28.337 60.1557 29.3434C59.134 30.3422 57.8111 30.8417 56.187 30.8417C54.441 30.8417 52.9237 30.2774 51.6351 29.149L50.3427 30.7273H49.5193V24.1739H50.3427C50.663 25.9809 51.3797 27.4068 52.4929 28.4513C53.6061 29.4959 54.8603 30.0182 56.2557 30.0182C57.3841 30.0182 58.3029 29.6865 59.012 29.0232C59.7287 28.3522 60.087 27.5402 60.087 26.5871C60.087 26.0458 59.9536 25.573 59.6868 25.1689C59.4199 24.7572 58.9967 24.4141 58.4172 24.1396C57.8378 23.8575 56.6979 23.5182 54.9976 23.1217C53.1296 22.6795 51.8562 22.1839 51.1776 21.6349C50.2246 20.8572 49.748 19.7554 49.748 18.3296C49.748 16.8428 50.2207 15.6267 51.1662 14.6812C52.1193 13.7281 53.3354 13.2516 54.8146 13.2516C55.5237 13.2516 56.1985 13.3774 56.8389 13.629C57.4794 13.8806 58.1428 14.3 58.829 14.8871ZM63.7011 13.6061H71.4325V14.4639H69.7856C69.4349 14.4639 69.1642 14.5554 68.9736 14.7384C68.783 14.9214 68.6877 15.1539 68.6877 15.436V23.2933L75.0581 16.4882C75.424 16.0918 75.607 15.7182 75.607 15.3674C75.607 15.1006 75.4812 14.8833 75.2296 14.7155C74.978 14.5478 74.5663 14.4639 73.9944 14.4639H73.5255V13.6061H80.4677V14.4639H79.9302C79.4651 14.4639 78.9543 14.6011 78.3977 14.8756C77.8411 15.1501 77.3264 15.5314 76.8537 16.0193L72.9308 20.1023L78.5463 28.3827C78.8589 28.8478 79.183 29.1795 79.5185 29.3777C79.854 29.5683 80.2504 29.6636 80.7079 29.6636H81.3255V30.5214H73.6971V29.6636H74.5663C75.1991 29.6636 75.6185 29.6103 75.8243 29.5035C76.0378 29.3968 76.1446 29.2634 76.1446 29.1032C76.1446 28.9584 76.0988 28.8135 76.0073 28.6686L71.341 21.8064L68.6877 24.6543V28.8173C68.6877 29.0766 68.7639 29.2672 68.9164 29.3892C69.1604 29.5722 69.4501 29.6636 69.7856 29.6636H71.4325V30.5214H63.7011V29.6636H65.1879C65.5692 29.6636 65.8513 29.5874 66.0343 29.4349C66.2173 29.2748 66.3088 29.0689 66.3088 28.8173V15.3102C66.3088 15.0434 66.2058 14.8375 66 14.6926C65.7941 14.5401 65.4472 14.4639 64.9592 14.4639H63.7011V13.6061ZM89.1599 13.2516H89.9261L95.9992 28.7258C96.2432 29.351 96.7426 29.6636 97.4974 29.6636H98.0235V30.5214H91.2757V29.6636H91.8132C92.5147 29.6636 93.0103 29.5874 93.3 29.4349C93.4983 29.3282 93.5974 29.1642 93.5974 28.9431C93.5974 28.8135 93.5707 28.6763 93.5173 28.5314L92.1106 24.9402H85.4314L84.6422 26.9988C84.4364 27.5478 84.3334 27.9824 84.3334 28.3026C84.3334 28.6763 84.505 28.9965 84.8481 29.2634C85.1988 29.5302 85.7059 29.6636 86.3692 29.6636H86.9411V30.5214H80.8109V29.6636C81.4666 29.6636 81.9851 29.5226 82.3663 29.2405C82.7475 28.9507 83.0983 28.4056 83.4185 27.605L89.1599 13.2516ZM88.8282 16.5111L85.7974 24.0481H91.7789L88.8282 16.5111ZM98.8699 13.6061H102.907L113.109 26.8959V17.2774C113.109 16.3091 112.888 15.5924 112.446 15.1272C112.041 14.7003 111.439 14.4792 110.639 14.4639V13.6061H116.551V14.4639C115.949 14.4639 115.499 14.5478 115.202 14.7155C114.905 14.8833 114.645 15.1882 114.424 15.6305C114.203 16.0727 114.092 16.5569 114.092 17.083V30.5214H113.017L102.461 16.6941V26.8959C102.461 27.8185 102.694 28.5085 103.159 28.966C103.624 29.4158 104.344 29.6484 105.32 29.6636V30.5214H98.8699V29.6636C99.6781 29.6332 100.319 29.3701 100.791 28.8745C101.264 28.3713 101.5 27.7575 101.5 27.0331V15.5619L101.306 15.356C100.925 14.9443 100.654 14.7003 100.494 14.624C100.273 14.5173 99.9869 14.4639 99.6361 14.4639H98.8699V13.6061ZM117.809 13.6061H126.547C127.844 13.6061 128.945 13.8349 129.853 14.2923C130.981 14.8718 131.938 15.8363 132.723 17.1859C133.516 18.5355 133.913 20.1328 133.913 21.978C133.913 23.5029 133.676 24.8754 133.204 26.0953C132.845 27.0331 132.293 27.8528 131.545 28.5543C130.806 29.2557 129.902 29.7818 128.835 30.1326C128.034 30.3918 126.967 30.5214 125.632 30.5214H117.809V29.6636H119.411C119.815 29.6636 120.093 29.5988 120.246 29.4692C120.406 29.3396 120.486 29.1375 120.486 28.8631V15.2416C120.486 15.0053 120.402 14.8184 120.234 14.6812C120.066 14.5363 119.834 14.4639 119.536 14.4639H117.809V13.6061ZM123.94 14.4639C123.597 14.4639 123.341 14.5363 123.173 14.6812C123.013 14.8261 122.933 15.0434 122.933 15.3331V28.8288C122.933 29.1032 123.029 29.3129 123.219 29.4578C123.41 29.595 123.734 29.6636 124.191 29.6636H125.632C126.921 29.6636 128.049 29.332 129.018 28.6686C129.651 28.2264 130.131 27.605 130.459 26.8044C130.909 25.7217 131.134 24.2273 131.134 22.3211C131.134 19.5 130.642 17.4337 129.658 16.1223C128.819 15.0167 127.554 14.4639 125.861 14.4639H123.94ZM136.772 13.6061H150.176L150.496 19.3132H149.73C149.425 17.5138 148.941 16.2557 148.278 15.539C147.622 14.8223 146.764 14.4639 145.704 14.4639H142.388C142.121 14.4639 141.919 14.5363 141.781 14.6812C141.644 14.8261 141.576 15.0472 141.576 15.3445V21.3718H143.028C143.806 21.3718 144.435 21.0935 144.915 20.5369C145.403 19.9803 145.666 19.1264 145.704 17.9751H146.493V25.8094H145.704C145.666 24.5132 145.399 23.5868 144.904 23.0302C144.416 22.466 143.749 22.1839 142.902 22.1839H141.576V28.9088C141.576 29.1528 141.656 29.3396 141.816 29.4692C141.983 29.5988 142.258 29.6636 142.639 29.6636H145.258C148.102 29.6636 149.742 27.849 150.176 24.2196H151L150.714 30.5214H136.772V29.6636H137.927C138.377 29.6636 138.693 29.5874 138.876 29.4349C139.059 29.2748 139.151 29.0461 139.151 28.7487V15.3445C139.151 15.0472 139.071 14.8261 138.911 14.6812C138.751 14.5363 138.499 14.4639 138.156 14.4639H136.772V13.6061ZM152.761 13.6061H161.499C163.191 13.6061 164.503 13.9912 165.433 14.7613C166.371 15.5314 166.84 16.5416 166.84 17.7921C166.84 18.5393 166.653 19.2064 166.279 19.7935C165.913 20.373 165.38 20.8381 164.678 21.1888C163.984 21.532 162.89 21.7798 161.396 21.9323C162.486 22.2296 163.237 22.5232 163.649 22.8129C164.061 23.095 164.389 23.4648 164.632 23.9223C164.884 24.3721 165.17 25.2947 165.49 26.69C165.719 27.6889 165.963 28.3713 166.222 28.7373C166.42 29.0194 166.634 29.1604 166.863 29.1604C167.099 29.1604 167.316 28.9889 167.515 28.6458C167.72 28.295 167.846 27.6812 167.892 26.8044H168.67C168.525 29.3968 167.568 30.693 165.799 30.693C165.242 30.693 164.758 30.5519 164.347 30.2698C163.942 29.9877 163.637 29.5722 163.432 29.0232C163.271 28.6114 163.092 27.5326 162.894 25.7865C162.78 24.7724 162.597 24.0519 162.345 23.6249C162.101 23.1979 161.716 22.8548 161.19 22.5956C160.664 22.3364 160.035 22.2067 159.303 22.2067H157.919V28.8516C157.919 29.1337 157.991 29.332 158.136 29.4463C158.319 29.5912 158.605 29.6636 158.994 29.6636H160.618V30.5214H152.761V29.6636H154.419C154.785 29.6636 155.052 29.5912 155.22 29.4463C155.395 29.3015 155.483 29.1032 155.483 28.8516V15.3331C155.483 15.0434 155.395 14.8261 155.22 14.6812C155.044 14.5363 154.778 14.4639 154.419 14.4639H152.761V13.6061ZM157.919 21.3833H159.92C161.262 21.3833 162.311 21.1317 163.066 20.6284C163.828 20.1176 164.209 19.2141 164.209 17.9179C164.209 17.0258 164.064 16.3205 163.775 15.802C163.493 15.2836 163.119 14.929 162.654 14.7384C162.189 14.5478 161.274 14.4525 159.909 14.4525C159.009 14.4525 158.453 14.5173 158.239 14.6469C158.026 14.7689 157.919 14.9824 157.919 15.2874V21.3833Z" fill="white"/>
<path d="M9.73581 17.6844C9.45548 19.7787 7.66229 21.3954 5.48938 21.3954C3.31647 21.3954 1.52473 19.7787 1.24292 17.6844H9.73581Z" fill="white"/>
<path d="M9.48987 16.8612L5.79367 6.8643C5.69875 6.6077 5.82926 6.32295 6.08586 6.22803C6.34246 6.1331 6.62724 6.26362 6.72217 6.52022L10.4198 16.5171C10.5148 16.7737 10.3842 17.0585 10.1276 17.1534C9.87103 17.2483 9.58628 17.1178 9.49135 16.8612H9.48987Z" fill="white"/>
<path d="M1.2531 17.1549C0.9965 17.0599 0.865981 16.7752 0.960907 16.5186L4.65707 6.52171C4.75199 6.26512 5.03678 6.1346 5.29337 6.22952C5.54997 6.32445 5.68049 6.6092 5.58556 6.86579L1.88792 16.8627C1.79299 17.1193 1.50821 17.2498 1.25161 17.1549H1.2531Z" fill="white"/>
<path d="M22.6739 17.1534C22.4173 17.057 22.2883 16.7722 22.3832 16.5156L26.0809 6.63147C26.1773 6.37487 26.4621 6.24584 26.7172 6.34076C26.9738 6.43717 27.1028 6.72192 27.0079 6.97852L23.3102 16.8627C23.2138 17.1193 22.929 17.2483 22.6724 17.1534H22.6739Z" fill="white"/>
<path d="M30.9132 16.8642L27.2156 6.98001C27.1192 6.72342 27.2497 6.43867 27.5063 6.34226C27.7629 6.24733 28.0477 6.37637 28.1441 6.63296L31.8417 16.5171C31.9367 16.7737 31.8076 17.0585 31.551 17.1549C31.2959 17.2498 31.0097 17.1208 30.9132 16.8642Z" fill="white"/>
<path d="M6.49043 7.22033C6.23828 7.22033 6.02172 7.02751 5.99799 6.77091C5.97278 6.49948 6.17301 6.25773 6.44444 6.23252C8.08933 6.07827 8.52836 5.89136 15.0486 4.10261C15.3126 4.02993 15.584 4.18568 15.6567 4.44969C15.7294 4.7137 15.5736 4.98511 15.3096 5.05779C8.75381 6.85545 8.26581 7.05717 6.53638 7.21884C6.52007 7.21884 6.50526 7.22181 6.48895 7.22181L6.49043 7.22033Z" fill="white"/>
<path d="M26.4326 7.25439C26.4178 7.25439 26.4014 7.25439 26.3851 7.25142C24.589 7.08233 24.1084 6.88211 17.2634 5.00436C16.9993 4.93169 16.8451 4.66024 16.9163 4.39623C16.9889 4.13222 17.2619 3.97795 17.5244 4.04915C24.3798 5.92986 24.7907 6.10639 26.4771 6.2651C26.7485 6.29031 26.9488 6.53206 26.9236 6.80497C26.8998 7.06157 26.6833 7.25439 26.4311 7.25439H26.4326Z" fill="white"/>
<path d="M16.367 2.30933C16.7215 2.30933 17.0523 2.40575 17.3385 2.57187V0.735663C17.3385 0.364859 17.0389 0.0652466 16.6681 0.0652466H16.0674C15.6966 0.0652466 15.397 0.364859 15.397 0.735663V2.57187C15.6832 2.40575 16.014 2.30933 16.3685 2.30933H16.367Z" fill="white"/>
<path d="M17.34 26.1669V5.91211C17.0537 6.07823 16.723 6.17464 16.3685 6.17464C16.014 6.17464 15.6832 6.07823 15.397 5.91211V26.1669H17.34Z" fill="white"/>
<path d="M16.7037 0.734167C16.7037 0.493887 16.8313 0.283257 17.0211 0.1646C16.9188 0.100821 16.7986 0.0637512 16.6681 0.0637512H16.0674C15.6966 0.0637512 15.397 0.363364 15.397 0.734167V2.57037C15.6817 2.40425 16.014 2.30784 16.3685 2.30784C16.4827 2.30784 16.5954 2.31825 16.7052 2.33753V0.732683L16.7037 0.734167Z" fill="white"/>
<path d="M22.2556 15.6954H31.9707C32.429 15.6954 32.8028 16.0706 32.8028 16.5275V16.8508C32.8028 17.3091 32.4275 17.6829 31.9707 17.6829H22.2556C21.7973 17.6829 21.4236 17.3076 21.4236 16.8508V16.5275C21.4236 16.0692 21.7988 15.6954 22.2556 15.6954Z" fill="white"/>
<path d="M31.969 16.3644H22.2539C21.9825 16.3644 21.7407 16.2323 21.5895 16.0291C21.4842 16.1686 21.4219 16.3406 21.4219 16.5275V16.8509C21.4219 17.3092 21.7971 17.683 22.2539 17.683H31.969C32.4273 17.683 32.8011 17.3077 32.8011 16.8509V16.5275C32.8011 16.3406 32.7373 16.1686 32.6335 16.0291C32.4807 16.2309 32.2404 16.3644 31.969 16.3644Z" fill="white"/>
<path d="M31.5583 17.6844C31.278 19.7787 29.4848 21.3954 27.3119 21.3954C25.1389 21.3954 23.3472 19.7787 23.0654 17.6844H31.5583Z" fill="white"/>
<path d="M3.22449 17.6844H1.24438C1.52471 19.7787 3.31794 21.3954 5.49085 21.3954C5.83199 21.3954 6.16273 21.3553 6.48014 21.2797C4.77296 20.8762 3.46032 19.4494 3.22449 17.6844Z" fill="white"/>
<path d="M25.0455 17.6844H23.0654C23.3458 19.7787 25.1404 21.3954 27.3119 21.3954C27.653 21.3954 27.9837 21.3553 28.3026 21.2797C26.5955 20.8762 25.2828 19.4494 25.0455 17.6844Z" fill="white"/>
<path d="M7.01725 6.69368C7.01725 7.42639 6.42248 8.02115 5.68978 8.02115C4.95707 8.02115 4.3623 7.42639 4.3623 6.69368C4.3623 5.96097 4.95707 5.36621 5.68978 5.36621C6.42248 5.36621 7.01725 5.96097 7.01725 6.69368Z" fill="white"/>
<path d="M28.4392 6.69368C28.4392 7.42639 27.8444 8.02115 27.1117 8.02115C26.3789 8.02115 25.7842 7.42639 25.7842 6.69368C25.7842 5.96097 26.3789 5.36621 27.1117 5.36621C27.8444 5.36621 28.4392 5.96097 28.4392 6.69368Z" fill="white"/>
<path d="M18.3013 4.24199C18.3013 5.30991 17.4366 6.17462 16.3687 6.17462C15.3008 6.17462 14.436 5.30991 14.436 4.24199C14.436 3.17408 15.3008 2.30936 16.3687 2.30936C17.4366 2.30936 18.3013 3.17408 18.3013 4.24199Z" fill="white"/>
<path d="M6.34219 6.69369C6.34219 6.35552 6.46971 6.04702 6.67884 5.81267C6.4356 5.53976 6.0826 5.36771 5.68807 5.36771C4.95536 5.36771 4.3606 5.96247 4.3606 6.69518C4.3606 7.42789 4.95536 8.02265 5.68807 8.02265C6.0826 8.02265 6.4356 7.85059 6.67884 7.57768C6.46971 7.34333 6.34219 7.03483 6.34219 6.69666V6.69369Z" fill="white"/>
<path d="M27.7658 6.69369C27.7658 6.35552 27.8933 6.04702 28.1025 5.81267C27.8592 5.53976 27.5062 5.36771 27.1117 5.36771C26.3789 5.36771 25.7842 5.96247 25.7842 6.69518C25.7842 7.42789 26.3789 8.02265 27.1117 8.02265C27.5062 8.02265 27.8592 7.85059 28.1025 7.57768C27.8933 7.34333 27.7658 7.03483 27.7658 6.69666V6.69369Z" fill="white"/>
<path d="M0.832064 15.6954H10.5471C11.0054 15.6954 11.3792 16.0706 11.3792 16.5275V16.8508C11.3792 17.3091 11.004 17.6829 10.5471 17.6829H0.832064C0.37375 17.6829 0 17.3076 0 16.8508V16.5275C0 16.0692 0.375233 15.6954 0.832064 15.6954Z" fill="white"/>
<path d="M10.5471 16.3644H0.832064C0.560635 16.3644 0.318874 16.2323 0.167586 16.0291C0.0622777 16.1686 0 16.3406 0 16.5275V16.8509C0 17.3092 0.375233 17.683 0.832064 17.683H10.5471C11.0054 17.683 11.3792 17.3077 11.3792 16.8509V16.5275C11.3792 16.3406 11.3169 16.1686 11.2116 16.0291C11.0588 16.2309 10.8186 16.3644 10.5471 16.3644Z" fill="white"/>
<path d="M19.4378 25.9637H13.3997V27.831H19.4378V25.9637Z" fill="white"/>
<path d="M14.2909 28.1425L12.5837 33.2477L16.2621 37.9228V32.4245C15.9269 32.3459 15.7044 32.0285 15.743 31.6859C15.783 31.3433 16.0723 31.0852 16.4179 31.0852C16.7635 31.0852 17.0527 31.3433 17.0927 31.6859C17.1328 32.0285 16.9103 32.3459 16.5736 32.4245V37.9228L20.2505 33.2492L18.4113 28.1425H14.2909ZM14.7759 29.6094L13.8504 32.3771C13.7852 32.5743 13.49 32.475 13.5553 32.2777L14.4808 29.51C14.5075 29.4285 14.5965 29.3839 14.6781 29.4121C14.7596 29.4388 14.8041 29.5278 14.7759 29.6094ZM15.0666 28.7417L14.9673 29.0398C14.902 29.2371 14.6069 29.1377 14.6721 28.9405L14.7715 28.6423C14.8382 28.448 15.1304 28.5459 15.0666 28.7417Z" fill="white"/>
<path d="M16.7855 31.766C16.7855 31.9677 16.6208 32.1324 16.4176 32.1324C16.2144 32.1324 16.0498 31.9692 16.0498 31.766C16.0498 31.5628 16.2144 31.4012 16.4176 31.4012C16.6208 31.4012 16.7855 31.5643 16.7855 31.766Z" fill="white"/>
<path d="M19.9969 23.6617H12.8389V25.6537H19.9969V23.6617Z" fill="white"/>
<path d="M13.5461 25.6166L19.436 25.6537L17.2913 0L15.4521 0.038565L13.5461 25.6166Z" fill="white"/>
<path d="M145.187 45.4353C138.024 45.9203 130.848 46.2674 123.666 46.481V49.8286C136.353 49.2368 149.001 47.9612 161.534 45.9144C162.876 45.6993 165.53 45.2351 166.866 44.9667C173.954 43.5917 180.997 41.9706 187.886 39.8466C173.744 42.6202 159.487 44.3496 145.187 45.4353Z" fill="white"/>
<path d="M37.8592 42.1367C30.7813 41.1044 23.6411 39.8733 16.7441 37.9229C30.234 43.1216 44.679 45.3716 58.9476 47.2864C65.8445 48.1126 72.7682 48.7711 79.7081 49.2561V46.0242C65.7095 45.3019 51.7421 44.0248 37.8577 42.1367H37.8592Z" fill="white"/>
<path d="M83.5538 41.3639H89.3274V41.996H87.9451C87.726 41.996 87.563 42.055 87.4562 42.173C87.3551 42.2854 87.3045 42.4652 87.3045 42.7125V52.5486C87.3045 52.7846 87.3692 52.9531 87.4984 53.0543C87.6332 53.1498 87.9002 53.1976 88.2991 53.1976H90.0522C90.985 53.1976 91.7464 52.8885 92.3364 52.2704C92.932 51.6467 93.3647 50.5679 93.6344 49.0339H94.2244L93.9378 53.8297H83.5538V53.1976H84.5737C84.9221 53.1976 85.1665 53.133 85.307 53.0037C85.4474 52.8689 85.5177 52.6553 85.5177 52.3631V42.6282C85.5177 42.4203 85.4587 42.2629 85.3407 42.1562C85.2227 42.0494 85.0485 41.996 84.8181 41.996H83.5538V41.3639ZM95.3454 41.3639H101.844C103.119 41.3639 104.094 41.6448 104.768 42.2068C105.448 42.7687 105.788 43.4738 105.788 44.3223C105.788 45.0303 105.552 45.6315 105.08 46.126C104.608 46.6205 103.898 47.011 102.948 47.2976C104.122 47.5448 105.002 47.9354 105.586 48.4692C106.176 48.9973 106.471 49.666 106.471 50.4752C106.471 51.0932 106.302 51.6411 105.965 52.1187C105.634 52.5963 105.078 53.0009 104.296 53.3324C103.521 53.664 102.639 53.8297 101.65 53.8297H95.3454V53.1976H96.3736C96.6827 53.1976 96.9075 53.147 97.0479 53.0459C97.194 52.9447 97.2671 52.8295 97.2671 52.7003V42.7125C97.2671 42.4765 97.1968 42.2995 97.0564 42.1815C96.9159 42.0578 96.7108 41.996 96.4411 41.996H95.3454V41.3639ZM99.0708 47.0953H101.431C102.156 47.0953 102.732 46.8818 103.159 46.4547C103.591 46.0277 103.808 45.3281 103.808 44.356C103.808 43.7548 103.704 43.2856 103.496 42.9485C103.293 42.6113 102.996 42.3669 102.602 42.2152C102.215 42.0578 101.54 41.9792 100.579 41.9792C99.8996 41.9792 99.4782 42.0298 99.3152 42.1309C99.1523 42.2264 99.0708 42.3978 99.0708 42.645V47.0953ZM99.0708 47.719V52.5233C99.0708 52.748 99.1354 52.9166 99.2646 53.029C99.3995 53.1414 99.6383 53.1976 99.9811 53.1976H101.49C102.49 53.1976 103.229 52.9784 103.706 52.5401C104.184 52.0962 104.423 51.4079 104.423 50.4752C104.423 49.6211 104.176 48.9496 103.681 48.4607C103.187 47.9663 102.504 47.719 101.633 47.719H99.0708ZM116.99 42.3332L117.571 41.1279H118.102L118.322 46.1429H117.757C117.386 44.7325 116.92 43.693 116.358 43.0243C115.661 42.1871 114.829 41.7685 113.863 41.7685C112.818 41.7685 111.966 42.2348 111.309 43.1676C110.652 44.1004 110.323 45.6793 110.323 47.9044C110.323 49.7756 110.699 51.2028 111.452 52.1861C112.093 53.0178 112.992 53.4336 114.149 53.4336C115.161 53.4336 116.009 53.1105 116.695 52.4643C117.38 51.8125 117.827 50.832 118.035 49.5227H118.633C118.459 51.0061 117.951 52.1468 117.108 52.9447C116.265 53.7426 115.203 54.1416 113.922 54.1416C112.882 54.1416 111.927 53.8803 111.056 53.3577C110.191 52.8351 109.497 52.085 108.974 51.1073C108.457 50.124 108.199 49.0479 108.199 47.8792C108.199 46.6374 108.466 45.4714 109 44.3813C109.539 43.2912 110.227 42.4737 111.065 41.9286C111.902 41.3779 112.804 41.1026 113.77 41.1026C114.31 41.1026 114.832 41.1953 115.338 41.3808C115.844 41.5662 116.394 41.8837 116.99 42.3332Z" fill="white"/>
</svg>
