<svg width="16" height="16" viewBox="0 0 16 16" fill="none" xmlns="http://www.w3.org/2000/svg">
<path d="M8.50107 16.0003H7.50102C7.31111 15.9769 7.12036 15.9569 6.93087 15.9298C5.18078 15.6777 3.65065 14.9558 2.4081 13.698C0.339544 11.604 -0.414669 9.08717 0.215998 6.21067C0.692233 4.03691 1.93979 2.36517 3.82595 1.1917C5.5101 0.143844 7.35076 -0.202522 9.30704 0.112128C10.8409 0.358757 12.1887 1.01685 13.3394 2.05929C14.6996 3.29118 15.5536 4.81227 15.8762 6.62338C15.928 6.91425 15.9589 7.20887 15.9994 7.50182V8.50169C15.9906 8.54175 15.9793 8.58139 15.9727 8.62187C15.9084 9.03208 15.8704 9.44814 15.7769 9.85168C15.0644 12.9264 12.4804 15.3551 9.37716 15.8789C9.08624 15.9281 8.79241 15.9602 8.50024 16.0003H8.50107ZM4.10226 4.69417C4.11687 4.69626 4.09683 4.69083 4.07638 4.69083C3.33761 4.69041 2.59843 4.68833 1.85966 4.69459C1.81082 4.695 1.74237 4.74884 1.71691 4.79641C1.44978 5.29342 1.25361 5.81923 1.13299 6.36966C1.05035 6.74691 1.00068 7.13166 0.934316 7.52393H3.74331C3.86393 6.57289 3.98289 5.63603 4.10226 4.69417ZM11.899 4.69C12.0192 5.64229 12.1377 6.57873 12.2571 7.52393H15.0406C15.0352 7.43171 15.034 7.34908 15.0248 7.26729C14.9413 6.50737 14.7318 5.78334 14.4359 5.07809C14.3111 4.78055 14.1595 4.66162 13.821 4.67956C13.1729 4.7142 12.5217 4.68958 11.899 4.68958V4.69ZM7.52564 4.70126C7.49851 4.69626 7.48391 4.69125 7.46888 4.69125C6.71968 4.69083 5.97089 4.6925 5.22168 4.68791C5.12193 4.68749 5.10565 4.73548 5.08603 4.81435C4.91199 5.51793 4.81265 6.23237 4.75714 6.95389C4.74253 7.14293 4.73877 7.33322 4.73001 7.52477H7.52606V4.70126H7.52564ZM11.2646 7.52811C11.2687 7.49764 11.2733 7.48262 11.2725 7.46801C11.2345 6.5779 11.1289 5.69738 10.9223 4.82896C10.8935 4.70836 10.8422 4.68749 10.7332 4.68791C10.0312 4.69208 9.32874 4.69 8.6267 4.69041C8.57703 4.69041 8.52695 4.695 8.48187 4.69709V7.52811H11.2646ZM0.965202 8.47706C0.965202 8.51462 0.96395 8.53549 0.965202 8.55593C1.03073 9.48611 1.28408 10.3641 1.70898 11.1921C1.73277 11.2388 1.82 11.2776 1.87844 11.2785C2.40392 11.2851 2.92941 11.2822 3.4549 11.2822C3.67778 11.2822 3.90108 11.2822 4.096 11.2822C3.97871 10.3433 3.86268 9.4135 3.7454 8.47706H0.965202ZM15.0728 8.47873H12.2571C12.139 9.41934 12.0225 10.3474 11.9048 11.2822C12.652 11.2822 13.4162 11.2839 14.1804 11.2776C14.2238 11.2776 14.2881 11.2171 14.306 11.1704C14.4905 10.6917 14.6946 10.2177 14.8378 9.72648C14.9542 9.32712 14.9951 8.90606 15.0728 8.47873ZM4.72917 8.47539C4.76173 9.43145 4.87526 10.3608 5.10857 11.2739H7.52189V8.47539H4.72917ZM10.8944 11.2772C11.1243 10.3495 11.245 9.42185 11.2704 8.48124H8.48187V11.2772H10.8939H10.8944ZM7.52147 14.9729V12.2303H5.39406C5.73423 13.1167 6.12949 13.9467 6.84698 14.5785C7.04231 14.7505 7.25894 14.8907 7.52147 14.9729ZM8.47519 14.9595C9.30787 14.7688 10.2194 13.4393 10.5859 12.2324H8.47519V14.9595ZM7.52564 3.74563V1.00433C6.33693 1.56519 5.86195 2.63768 5.39699 3.74563H7.52564ZM10.6151 3.74521C10.4544 3.39592 10.3159 3.06083 10.1497 2.7395C9.868 2.19575 9.52533 1.69331 9.02489 1.32316C8.86169 1.20255 8.6747 1.11367 8.4777 0.99849V3.74521H10.6151ZM13.6608 12.2199C13.0042 12.2199 12.3857 12.2245 11.7671 12.2161C11.634 12.2145 11.5809 12.2583 11.5405 12.3801C11.2813 13.1638 10.9294 13.9025 10.4381 14.5698C10.4285 14.5827 10.424 14.599 10.4031 14.6424C11.7312 14.1433 12.7968 13.3496 13.6604 12.2199H13.6608ZM5.57896 14.6173C5.07184 13.9112 4.7083 13.1384 4.43992 12.3192C4.40987 12.2278 4.35895 12.2186 4.27923 12.2191C3.67569 12.2211 3.07257 12.2203 2.46904 12.2207C2.43648 12.2207 2.40351 12.2274 2.3505 12.2333C3.20655 13.3508 4.27214 14.1445 5.57855 14.6173H5.57896ZM10.4294 1.37115C10.6498 1.7509 10.8839 2.10895 11.0713 2.48995C11.2587 2.87137 11.3965 3.27657 11.5651 3.66759C11.5835 3.70974 11.664 3.74855 11.7162 3.74938C12.3147 3.75523 12.9137 3.75314 13.5122 3.7523C13.5447 3.7523 13.5773 3.74396 13.6253 3.73728C12.7751 2.63809 11.7174 1.85481 10.4294 1.37156V1.37115ZM5.57813 1.387C4.28549 1.85481 3.22617 2.63726 2.38556 3.72685C2.40726 3.74062 2.41519 3.75022 2.42312 3.75022C3.05797 3.75147 3.69322 3.75356 4.32806 3.74855C4.36688 3.74855 4.4274 3.69764 4.44118 3.65758C4.71957 2.85259 5.07476 2.08683 5.57813 1.387Z" fill="white"/>
</svg>
